G04 #@! TF.GenerationSoftware,KiCad,Pcbnew,(6.0.5)*
G04 #@! TF.CreationDate,2022-06-17T15:36:40+02:00*
G04 #@! TF.ProjectId,ruche,72756368-652e-46b6-9963-61645f706362,rev?*
G04 #@! TF.SameCoordinates,Original*
G04 #@! TF.FileFunction,Profile,NP*
%FSLAX46Y46*%
G04 Gerber Fmt 4.6, Leading zero omitted, Abs format (unit mm)*
G04 Created by KiCad (PCBNEW (6.0.5)) date 2022-06-17 15:36:40*
%MOMM*%
%LPD*%
G01*
G04 APERTURE LIST*
G04 #@! TA.AperFunction,Profile*
%ADD10C,0.050000*%
G04 #@! TD*
G04 APERTURE END LIST*
D10*
X88500000Y-169010000D02*
X167300000Y-169010000D01*
X169300000Y-80610000D02*
X169300000Y-75610000D01*
X169299975Y-71110000D02*
G75*
G03*
X167300000Y-69100000I-1999975J10000D01*
G01*
X86500000Y-80390000D02*
X86500000Y-167110000D01*
X164300000Y-76560000D02*
X164300000Y-75610000D01*
X168800000Y-81110000D02*
G75*
G03*
X169300000Y-80610000I0J500000D01*
G01*
X164800000Y-81110000D02*
X168800000Y-81110000D01*
X168300000Y-71610000D02*
G75*
G03*
X168300000Y-71610000I-1500000J0D01*
G01*
X168800000Y-74110000D02*
X163800000Y-74110000D01*
X88500000Y-69100000D02*
X125900000Y-69100000D01*
X169300000Y-75610000D02*
G75*
G03*
X168800000Y-75110000I-500000J0D01*
G01*
X163800000Y-74110000D02*
G75*
G03*
X163300000Y-74610000I0J-500000D01*
G01*
X164300000Y-79110000D02*
G75*
G03*
X163300000Y-79110000I-500000J0D01*
G01*
X90500000Y-166510000D02*
G75*
G03*
X90500000Y-166510000I-1500000J0D01*
G01*
X168800000Y-82110000D02*
X163800000Y-82110000D01*
X167300000Y-69100000D02*
X125900000Y-69100000D01*
X163300000Y-81610000D02*
X163300000Y-79110000D01*
X164300000Y-79110000D02*
X164300000Y-80610000D01*
X164300000Y-80610000D02*
G75*
G03*
X164800000Y-81110000I500000J0D01*
G01*
X88500000Y-69100025D02*
G75*
G03*
X86500000Y-71110000I10000J-2009975D01*
G01*
X167300000Y-169010000D02*
G75*
G03*
X169300000Y-167110000I97500J1900000D01*
G01*
X163300000Y-81610000D02*
G75*
G03*
X163800000Y-82110000I500000J0D01*
G01*
X86500000Y-167110000D02*
G75*
G03*
X88500000Y-169010000I1902500J0D01*
G01*
X169300000Y-82610000D02*
G75*
G03*
X168800000Y-82110000I-500000J0D01*
G01*
X168300000Y-166510000D02*
G75*
G03*
X168300000Y-166510000I-1500000J0D01*
G01*
X164800000Y-75110000D02*
X168800000Y-75110000D01*
X169300000Y-73610000D02*
X169300000Y-71110000D01*
X164800000Y-75110000D02*
G75*
G03*
X164300000Y-75610000I0J-500000D01*
G01*
X163300000Y-74610000D02*
X163300000Y-76560000D01*
X168800000Y-74110000D02*
G75*
G03*
X169300000Y-73610000I-5000J505000D01*
G01*
X86500000Y-80390000D02*
X86500000Y-71110000D01*
X163300000Y-76560000D02*
G75*
G03*
X164300000Y-76560000I500000J0D01*
G01*
X169300000Y-167110000D02*
X169300000Y-82610000D01*
X90500000Y-71610000D02*
G75*
G03*
X90500000Y-71610000I-1500000J0D01*
G01*
M02*
