M48
; DRILL file {KiCad (6.0.5)} date Fri Jun 17 15:36:50 2022
; FORMAT={-:-/ absolute / metric / decimal}
; #@! TF.CreationDate,2022-06-17T15:36:50+02:00
; #@! TF.GenerationSoftware,Kicad,Pcbnew,(6.0.5)
; #@! TF.FileFunction,Plated,1,2,PTH
FMAT,2
METRIC
; #@! TA.AperFunction,Plated,PTH,ViaDrill
T1C0.300
; #@! TA.AperFunction,Plated,PTH,ComponentDrill
T2C0.750
; #@! TA.AperFunction,Plated,PTH,ComponentDrill
T3C1.000
; #@! TA.AperFunction,Plated,PTH,ComponentDrill
T4C1.100
; #@! TA.AperFunction,Plated,PTH,ComponentDrill
T5C1.450
; #@! TA.AperFunction,Plated,PTH,ComponentDrill
T6C3.026
%
G90
G05
T1
X87.6Y-112.93
X87.6Y-115.43
X87.6Y-117.93
X87.6Y-120.43
X87.6Y-122.93
X87.6Y-125.43
X87.6Y-127.93
X87.6Y-130.43
X87.6Y-132.93
X87.6Y-137.93
X87.61Y-135.43
X88.3Y-140.56
X88.3Y-143.06
X88.3Y-145.56
X88.3Y-148.06
X88.3Y-150.56
X88.3Y-152.905
X88.3Y-155.44
X88.3Y-157.94
X88.3Y-160.44
X88.3Y-162.94
X88.74Y-102.06
X88.75Y-82.67
X88.75Y-91.38
X88.77Y-74.44
X90.1Y-112.93
X90.1Y-115.43
X90.1Y-132.93
X90.1Y-135.43
X90.1Y-137.93
X90.9Y-164.72
X91.65Y-70.52
X91.65Y-73.02
X91.65Y-131.35
X92.11Y-166.6
X92.6Y-112.93
X92.6Y-115.43
X92.6Y-117.93
X92.6Y-120.43
X92.6Y-122.93
X92.6Y-125.43
X92.6Y-127.93
X92.6Y-130.43
X92.6Y-132.93
X92.6Y-135.43
X92.6Y-137.93
X93.36Y-167.75
X94.15Y-70.52
X95.1Y-112.93
X95.1Y-115.43
X95.1Y-117.93
X95.1Y-120.43
X95.1Y-122.93
X95.1Y-125.43
X95.1Y-127.93
X95.1Y-130.43
X95.1Y-132.93
X95.1Y-135.43
X95.1Y-137.93
X95.82Y-70.41
X95.86Y-167.75
X97.17Y-139.57
X97.6Y-112.93
X97.6Y-115.43
X97.6Y-117.93
X97.6Y-120.43
X97.6Y-122.93
X97.6Y-125.43
X97.6Y-127.93
X97.6Y-130.43
X97.6Y-132.93
X97.6Y-135.43
X97.6Y-137.93
X98.06Y-70.41
X98.06Y-102.91
X98.36Y-167.75
X100.1Y-112.93
X100.1Y-115.43
X100.1Y-117.93
X100.1Y-120.43
X100.1Y-122.93
X100.1Y-125.43
X100.1Y-127.93
X100.1Y-130.43
X100.1Y-132.93
X100.1Y-135.43
X100.1Y-137.93
X100.56Y-70.41
X100.86Y-167.75
X101.03Y-162.52
X102.6Y-112.93
X102.6Y-115.43
X102.6Y-117.93
X102.6Y-120.43
X102.6Y-122.93
X102.6Y-125.43
X102.6Y-127.93
X102.6Y-130.43
X102.6Y-132.93
X102.6Y-135.43
X102.6Y-137.93
X103.06Y-70.41
X103.36Y-167.75
X105.1Y-112.93
X105.1Y-115.43
X105.1Y-132.93
X105.1Y-135.43
X105.1Y-137.93
X105.56Y-70.41
X105.86Y-167.75
X107.11Y-126.27
X107.31Y-110.13
X107.59Y-130.12
X107.6Y-112.93
X107.6Y-115.43
X107.6Y-117.93
X107.6Y-135.43
X107.6Y-137.93
X107.65Y-120.07
X107.68Y-133.0
X107.7Y-122.5
X108.06Y-70.41
X108.35Y-167.73
X109.46Y-97.26
X109.57Y-86.84
X109.68Y-122.48
X109.76Y-126.48
X109.78Y-118.46
X110.1Y-130.14
X110.1Y-132.93
X110.1Y-137.93
X110.56Y-70.41
X110.75Y-104.69
X110.79Y-114.43
X110.84Y-73.68
X110.86Y-167.75
X111.59Y-126.88
X111.64Y-118.03
X111.68Y-122.48
X112.24Y-96.64
X112.29Y-132.93
X112.45Y-135.97
X112.48Y-137.95
X112.61Y-130.08
X113.06Y-70.41
X113.36Y-167.75
X115.02Y-98.58
X115.56Y-70.41
X115.86Y-167.75
X116.15Y-93.78
X116.18Y-161.99
X117.86Y-126.07
X117.895Y-122.48
X118.06Y-70.41
X118.36Y-167.75
X118.74Y-111.5
X120.29Y-159.52
X120.56Y-70.41
X120.86Y-167.75
X122.06Y-159.11
X122.78Y-132.78
X123.06Y-70.41
X123.36Y-167.75
X123.66Y-94.169
X123.73Y-121.18
X124.07Y-123.74
X124.12Y-132.96
X125.325Y-126.035
X125.54Y-87.05
X125.753Y-83.374
X125.86Y-167.75
X126.125Y-94.7
X126.14Y-100.45
X126.4Y-125.26
X126.43Y-71.59
X126.47Y-84.07
X126.95Y-109.6
X127.81Y-129.01
X127.93Y-101.73
X128.06Y-70.41
X128.09Y-136.29
X128.21Y-142.09
X128.23Y-88.02
X128.36Y-167.75
X128.74Y-84.72
X128.79Y-78.31
X128.794Y-103.66
X128.93Y-91.77
X129.06Y-160.49
X129.12Y-163.2
X129.7Y-121.19
X129.78Y-72.71
X129.84Y-141.75
X129.89Y-135.94
X130.56Y-70.41
X130.65Y-73.62
X130.65Y-91.61
X130.86Y-167.75
X130.96Y-87.0
X131.96Y-91.67
X132.31Y-127.069
X132.35Y-73.25
X132.73Y-132.46
X132.79Y-97.28
X133.06Y-70.41
X133.08Y-105.98
X133.36Y-167.75
X133.41Y-112.56
X133.82Y-89.04
X133.82Y-91.89
X134.51Y-134.9
X135.1Y-132.39
X135.23Y-141.74
X135.52Y-126.42
X135.56Y-135.94
X135.57Y-125.54
X135.58Y-162.81
X135.72Y-121.69
X135.86Y-167.75
X136.08Y-91.79
X136.4Y-148.89
X136.51Y-158.13
X136.72Y-81.7
X136.85Y-142.15
X137.18Y-73.25
X138.04Y-124.33
X138.24Y-137.13
X138.36Y-167.75
X138.47Y-135.27
X138.54Y-81.7
X138.84Y-76.52
X139.18Y-131.42
X139.43Y-81.25
X139.592Y-123.717
X140.278Y-133.37
X140.38Y-145.42
X140.56Y-70.41
X140.7Y-167.75
X141.16Y-121.39
X141.313Y-140.817
X142.43Y-152.01
X143.06Y-70.41
X143.2Y-167.75
X143.33Y-152.01
X143.54Y-83.02
X143.74Y-93.49
X144.18Y-78.07
X144.181Y-142.142
X144.58Y-89.82
X144.8Y-95.84
X144.97Y-110.05
X144.97Y-124.02
X144.97Y-138.16
X145.56Y-70.41
X145.7Y-167.75
X146.477Y-145.445
X147.6Y-132.74
X147.6Y-134.01
X147.63Y-91.15
X147.64Y-118.53
X147.67Y-119.82
X147.74Y-105.5
X147.75Y-104.25
X148.06Y-70.41
X148.2Y-167.75
X149.37Y-146.3
X150.0Y-87.3
X150.03Y-115.97
X150.04Y-101.67
X150.14Y-108.4
X150.31Y-136.91
X150.39Y-122.69
X150.48Y-94.01
X150.56Y-70.41
X150.7Y-167.75
X150.92Y-153.0
X153.06Y-70.41
X153.06Y-167.91
X154.35Y-130.46
X154.44Y-116.24
X154.6Y-141.079
X154.71Y-87.57
X154.83Y-101.97
X155.48Y-136.52
X155.56Y-70.41
X155.56Y-167.91
X155.63Y-122.36
X155.68Y-93.9
X155.76Y-108.3
X156.06Y-124.09
X156.07Y-138.27
X156.32Y-95.77
X156.38Y-110.0
X156.64Y-81.56
X157.43Y-114.26
X157.55Y-100.28
X158.06Y-70.41
X158.06Y-167.91
X158.27Y-133.38
X158.48Y-119.13
X158.73Y-124.19
X158.84Y-110.04
X158.96Y-95.66
X159.5Y-128.66
X159.71Y-86.01
X159.9Y-89.36
X159.92Y-103.9
X160.41Y-79.5
X160.56Y-70.41
X160.56Y-167.91
X161.03Y-138.37
X161.56Y-75.41
X162.25Y-81.82
X163.06Y-70.41
X164.06Y-72.91
X164.06Y-165.41
X164.06Y-167.91
X164.83Y-95.78
X164.88Y-109.42
X164.9Y-122.94
X166.56Y-137.91
X166.64Y-157.41
X166.67Y-149.91
X167.06Y-163.6
X167.07Y-80.1
X168.3Y-79.62
T2
X88.71Y-93.72
X88.71Y-95.72
X88.71Y-97.72
X88.71Y-99.72
X88.74Y-85.04
X88.74Y-87.04
X88.74Y-89.04
X88.75Y-76.34
X88.75Y-78.34
X88.75Y-80.34
X88.76Y-104.41
X88.76Y-106.41
X88.76Y-108.41
X88.76Y-110.41
X103.73Y-93.72
X103.73Y-95.72
X103.73Y-97.72
X103.73Y-99.72
X103.73Y-104.4
X103.73Y-106.4
X103.73Y-108.4
X103.73Y-110.4
X103.76Y-85.03
X103.76Y-87.03
X103.76Y-89.03
X103.8Y-76.35
X103.8Y-78.35
X103.8Y-80.35
X112.11Y-114.42
X114.11Y-114.42
X120.968Y-82.28
X120.968Y-84.82
X120.968Y-87.36
X120.968Y-89.9
X120.968Y-92.44
X120.968Y-94.98
X120.968Y-97.52
X120.968Y-100.06
X120.968Y-102.6
X120.968Y-105.14
X120.968Y-107.68
X120.968Y-110.22
X120.968Y-112.76
X120.968Y-115.3
X141.287Y-82.28
X141.287Y-84.82
X141.287Y-87.36
X141.287Y-89.9
X141.287Y-92.44
X141.287Y-94.98
X141.287Y-97.52
X141.287Y-100.06
X141.287Y-102.6
X141.287Y-105.14
X141.287Y-107.68
X141.287Y-110.22
X141.287Y-112.76
X141.287Y-115.3
X147.87Y-72.18
X149.87Y-72.18
X151.87Y-72.18
X153.87Y-72.18
X166.98Y-142.9
X166.98Y-144.9
X166.98Y-146.9
X166.99Y-159.69
X166.99Y-161.69
X167.01Y-153.05
X167.01Y-155.05
T3
X114.11Y-91.17
T4
X165.87Y-83.94
X165.87Y-86.48
X165.87Y-89.02
X165.87Y-91.56
X165.87Y-94.1
X165.87Y-97.56
X165.87Y-100.1
X165.87Y-102.64
X165.87Y-105.18
X165.87Y-107.72
X165.9Y-111.09
X165.9Y-113.63
X165.9Y-116.17
X165.9Y-118.71
X165.9Y-121.25
X165.9Y-124.64
X165.9Y-127.18
X165.9Y-129.72
X165.9Y-132.26
X165.9Y-134.8
T5
X91.78Y-143.785
X91.78Y-148.785
T6
X114.11Y-86.37
T0
M30
