G04 #@! TF.GenerationSoftware,KiCad,Pcbnew,(6.0.5)*
G04 #@! TF.CreationDate,2022-06-17T15:36:40+02:00*
G04 #@! TF.ProjectId,ruche,72756368-652e-46b6-9963-61645f706362,rev?*
G04 #@! TF.SameCoordinates,Original*
G04 #@! TF.FileFunction,Paste,Top*
G04 #@! TF.FilePolarity,Positive*
%FSLAX46Y46*%
G04 Gerber Fmt 4.6, Leading zero omitted, Abs format (unit mm)*
G04 Created by KiCad (PCBNEW (6.0.5)) date 2022-06-17 15:36:40*
%MOMM*%
%LPD*%
G01*
G04 APERTURE LIST*
G04 Aperture macros list*
%AMRoundRect*
0 Rectangle with rounded corners*
0 $1 Rounding radius*
0 $2 $3 $4 $5 $6 $7 $8 $9 X,Y pos of 4 corners*
0 Add a 4 corners polygon primitive as box body*
4,1,4,$2,$3,$4,$5,$6,$7,$8,$9,$2,$3,0*
0 Add four circle primitives for the rounded corners*
1,1,$1+$1,$2,$3*
1,1,$1+$1,$4,$5*
1,1,$1+$1,$6,$7*
1,1,$1+$1,$8,$9*
0 Add four rect primitives between the rounded corners*
20,1,$1+$1,$2,$3,$4,$5,0*
20,1,$1+$1,$4,$5,$6,$7,0*
20,1,$1+$1,$6,$7,$8,$9,0*
20,1,$1+$1,$8,$9,$2,$3,0*%
G04 Aperture macros list end*
%ADD10RoundRect,0.250000X-0.550000X1.500000X-0.550000X-1.500000X0.550000X-1.500000X0.550000X1.500000X0*%
%ADD11RoundRect,0.225000X-0.250000X0.225000X-0.250000X-0.225000X0.250000X-0.225000X0.250000X0.225000X0*%
%ADD12RoundRect,0.250000X-0.475000X0.250000X-0.475000X-0.250000X0.475000X-0.250000X0.475000X0.250000X0*%
%ADD13RoundRect,0.225000X-0.225000X-0.250000X0.225000X-0.250000X0.225000X0.250000X-0.225000X0.250000X0*%
%ADD14RoundRect,0.250000X0.475000X-0.250000X0.475000X0.250000X-0.475000X0.250000X-0.475000X-0.250000X0*%
%ADD15RoundRect,0.250000X0.550000X-1.250000X0.550000X1.250000X-0.550000X1.250000X-0.550000X-1.250000X0*%
%ADD16RoundRect,0.212500X-0.400000X-0.212500X0.400000X-0.212500X0.400000X0.212500X-0.400000X0.212500X0*%
%ADD17R,1.240000X1.120000*%
%ADD18R,3.200000X2.250000*%
%ADD19R,0.650000X1.525000*%
%ADD20R,3.650000X3.750000*%
%ADD21R,0.800000X0.900000*%
%ADD22RoundRect,0.200000X-0.200000X-0.275000X0.200000X-0.275000X0.200000X0.275000X-0.200000X0.275000X0*%
%ADD23RoundRect,0.200000X0.275000X-0.200000X0.275000X0.200000X-0.275000X0.200000X-0.275000X-0.200000X0*%
%ADD24RoundRect,0.200000X-0.275000X0.200000X-0.275000X-0.200000X0.275000X-0.200000X0.275000X0.200000X0*%
%ADD25RoundRect,0.250000X-0.362500X-1.425000X0.362500X-1.425000X0.362500X1.425000X-0.362500X1.425000X0*%
%ADD26RoundRect,0.200000X0.200000X0.275000X-0.200000X0.275000X-0.200000X-0.275000X0.200000X-0.275000X0*%
%ADD27R,0.750000X0.300000*%
%ADD28R,0.900000X1.300000*%
%ADD29R,2.500000X1.000000*%
%ADD30R,0.300000X0.500000*%
%ADD31RoundRect,0.225000X0.250000X-0.225000X0.250000X0.225000X-0.250000X0.225000X-0.250000X-0.225000X0*%
%ADD32RoundRect,0.150000X-0.587500X-0.150000X0.587500X-0.150000X0.587500X0.150000X-0.587500X0.150000X0*%
%ADD33RoundRect,0.218750X0.218750X0.256250X-0.218750X0.256250X-0.218750X-0.256250X0.218750X-0.256250X0*%
%ADD34RoundRect,0.218750X-0.218750X-0.256250X0.218750X-0.256250X0.218750X0.256250X-0.218750X0.256250X0*%
%ADD35RoundRect,0.250000X-0.250000X-0.475000X0.250000X-0.475000X0.250000X0.475000X-0.250000X0.475000X0*%
%ADD36RoundRect,0.100000X-0.637500X-0.100000X0.637500X-0.100000X0.637500X0.100000X-0.637500X0.100000X0*%
%ADD37RoundRect,0.150000X0.512500X0.150000X-0.512500X0.150000X-0.512500X-0.150000X0.512500X-0.150000X0*%
%ADD38R,1.525000X0.700000*%
%ADD39RoundRect,0.225000X0.225000X0.250000X-0.225000X0.250000X-0.225000X-0.250000X0.225000X-0.250000X0*%
%ADD40R,0.950000X0.550000*%
G04 APERTURE END LIST*
D10*
X102625000Y-157110000D03*
X102625000Y-162510000D03*
D11*
X122060000Y-156385000D03*
X122060000Y-157935000D03*
D12*
X120290000Y-156390000D03*
X120290000Y-158290000D03*
D11*
X135560000Y-160275000D03*
X135560000Y-161825000D03*
X149347466Y-143757466D03*
X149347466Y-145307466D03*
D13*
X126495000Y-163600000D03*
X128045000Y-163600000D03*
D14*
X136410000Y-152035000D03*
X136410000Y-150135000D03*
D15*
X140380000Y-152010000D03*
X140380000Y-147610000D03*
D11*
X166012609Y-78557391D03*
X166012609Y-80107391D03*
D16*
X91277500Y-139580000D03*
X92902500Y-139580000D03*
D17*
X102700000Y-153900000D03*
X99700000Y-153900000D03*
D16*
X132307500Y-165542000D03*
X133932500Y-165542000D03*
X132327500Y-163992000D03*
X133952500Y-163992000D03*
D18*
X116180000Y-153260000D03*
X116180000Y-160160000D03*
X110025000Y-153235000D03*
X110025000Y-160135000D03*
D19*
X128070000Y-161912000D03*
X129070000Y-161912000D03*
X130070000Y-161912000D03*
X131070000Y-161912000D03*
X132070000Y-161912000D03*
X132070000Y-156488000D03*
X131070000Y-156488000D03*
X130070000Y-156488000D03*
X129070000Y-156488000D03*
X128070000Y-156488000D03*
D20*
X110040000Y-144690000D03*
X121740000Y-144690000D03*
D21*
X125540000Y-156350000D03*
X123640000Y-156350000D03*
X124590000Y-158350000D03*
D22*
X94425000Y-139570000D03*
X96075000Y-139570000D03*
D23*
X133990000Y-161875000D03*
X133990000Y-160225000D03*
D22*
X127895000Y-165540000D03*
X129545000Y-165540000D03*
D24*
X135460000Y-156485000D03*
X135460000Y-158135000D03*
D23*
X133960000Y-158135000D03*
X133960000Y-156485000D03*
D25*
X127637500Y-152030000D03*
X133562500Y-152030000D03*
D26*
X126155000Y-107070000D03*
X124505000Y-107070000D03*
X125315000Y-105140000D03*
X123665000Y-105140000D03*
D27*
X147397466Y-144257466D03*
X147397466Y-143757466D03*
X147397466Y-143257466D03*
X147397466Y-142757466D03*
X145397466Y-142757466D03*
X145397466Y-143257466D03*
X145397466Y-143757466D03*
X145397466Y-144257466D03*
D28*
X146397466Y-143507466D03*
D29*
X105065000Y-131360000D03*
X105065000Y-128820000D03*
X105065000Y-126280000D03*
X105065000Y-123740000D03*
X105065000Y-121200000D03*
X105065000Y-118660000D03*
X89565000Y-118660000D03*
X89565000Y-121200000D03*
X89565000Y-123740000D03*
X89565000Y-126280000D03*
X89565000Y-128820000D03*
X89565000Y-131360000D03*
D30*
X168287609Y-77157391D03*
X167487609Y-77157391D03*
X167487609Y-78557391D03*
X168287609Y-78557391D03*
D11*
X109765000Y-123750000D03*
X109765000Y-125300000D03*
D12*
X111590000Y-123750000D03*
X111590000Y-125650000D03*
D23*
X123660000Y-103745000D03*
X123660000Y-102095000D03*
D12*
X128070000Y-133360000D03*
X128070000Y-135260000D03*
D31*
X109780000Y-121215000D03*
X109780000Y-119665000D03*
D23*
X158540000Y-87655000D03*
X158540000Y-86005000D03*
D14*
X159900000Y-92500000D03*
X159900000Y-90600000D03*
D12*
X136853750Y-139030000D03*
X136853750Y-140930000D03*
D23*
X108340000Y-96995000D03*
X108340000Y-95345000D03*
D14*
X159770000Y-135300000D03*
X159770000Y-133400000D03*
D32*
X154952500Y-133340000D03*
X154952500Y-135240000D03*
X156827500Y-134290000D03*
D11*
X135233750Y-139035000D03*
X135233750Y-140585000D03*
D23*
X158280000Y-130325000D03*
X158280000Y-128675000D03*
X156980000Y-89235000D03*
X156980000Y-87585000D03*
D31*
X153370000Y-113105000D03*
X153370000Y-111555000D03*
D13*
X147825000Y-122700000D03*
X149375000Y-122700000D03*
X153265000Y-108270000D03*
X154815000Y-108270000D03*
D24*
X109670000Y-108485000D03*
X109670000Y-110135000D03*
X112400000Y-108485000D03*
X112400000Y-110135000D03*
D33*
X158517500Y-122640000D03*
X156942500Y-122640000D03*
D24*
X115150000Y-108485000D03*
X115150000Y-110135000D03*
D11*
X159920000Y-108475000D03*
X159920000Y-110025000D03*
D14*
X159920000Y-106940000D03*
X159920000Y-105040000D03*
D34*
X111912500Y-73700000D03*
X113487500Y-73700000D03*
D23*
X158460000Y-115925000D03*
X158460000Y-114275000D03*
D35*
X153280000Y-109990000D03*
X155180000Y-109990000D03*
X153020000Y-138290000D03*
X154920000Y-138290000D03*
D32*
X155152500Y-104870000D03*
X155152500Y-106770000D03*
X157027500Y-105820000D03*
D36*
X110747500Y-96625000D03*
X110747500Y-97275000D03*
X110747500Y-97925000D03*
X110747500Y-98575000D03*
X110747500Y-99225000D03*
X110747500Y-99875000D03*
X110747500Y-100525000D03*
X110747500Y-101175000D03*
X110747500Y-101825000D03*
X110747500Y-102475000D03*
X110747500Y-103125000D03*
X110747500Y-103775000D03*
X116472500Y-103775000D03*
X116472500Y-103125000D03*
X116472500Y-102475000D03*
X116472500Y-101825000D03*
X116472500Y-101175000D03*
X116472500Y-100525000D03*
X116472500Y-99875000D03*
X116472500Y-99225000D03*
X116472500Y-98575000D03*
X116472500Y-97925000D03*
X116472500Y-97275000D03*
X116472500Y-96625000D03*
D24*
X108310000Y-108485000D03*
X108310000Y-110135000D03*
D37*
X133681250Y-139030000D03*
X133681250Y-138080000D03*
X133681250Y-137130000D03*
X131406250Y-137130000D03*
X131406250Y-139030000D03*
D23*
X156820000Y-131945000D03*
X156820000Y-130295000D03*
D11*
X159900000Y-94085000D03*
X159900000Y-95635000D03*
D14*
X137225000Y-76480000D03*
X137225000Y-74580000D03*
D11*
X159870000Y-122635000D03*
X159870000Y-124185000D03*
D13*
X153105000Y-122370000D03*
X154655000Y-122370000D03*
D22*
X115085000Y-73700000D03*
X116735000Y-73700000D03*
D13*
X147755000Y-136920000D03*
X149305000Y-136920000D03*
D11*
X135590000Y-133395000D03*
X135590000Y-134945000D03*
D22*
X133925000Y-76480000D03*
X135575000Y-76480000D03*
D13*
X147675000Y-108410000D03*
X149225000Y-108410000D03*
D33*
X158527500Y-94060000D03*
X156952500Y-94060000D03*
X158407500Y-136810000D03*
X156832500Y-136810000D03*
D14*
X111640000Y-121180000D03*
X111640000Y-119280000D03*
D22*
X154815000Y-111560000D03*
X156465000Y-111560000D03*
D38*
X151602000Y-106775000D03*
X151602000Y-105505000D03*
X151602000Y-104235000D03*
X151602000Y-102965000D03*
X151602000Y-101695000D03*
X151602000Y-100425000D03*
X151602000Y-99155000D03*
X151602000Y-97885000D03*
X146178000Y-97885000D03*
X146178000Y-99155000D03*
X146178000Y-100425000D03*
X146178000Y-101695000D03*
X146178000Y-102965000D03*
X146178000Y-104235000D03*
X146178000Y-105505000D03*
X146178000Y-106775000D03*
D23*
X128820000Y-94535000D03*
X128820000Y-92885000D03*
D38*
X151562000Y-121085000D03*
X151562000Y-119815000D03*
X151562000Y-118545000D03*
X151562000Y-117275000D03*
X151562000Y-116005000D03*
X151562000Y-114735000D03*
X151562000Y-113465000D03*
X151562000Y-112195000D03*
X146138000Y-112195000D03*
X146138000Y-113465000D03*
X146138000Y-114735000D03*
X146138000Y-116005000D03*
X146138000Y-117275000D03*
X146138000Y-118545000D03*
X146138000Y-119815000D03*
X146138000Y-121085000D03*
D39*
X130945000Y-88080000D03*
X129395000Y-88080000D03*
D23*
X157040000Y-103545000D03*
X157040000Y-101895000D03*
D22*
X154745000Y-127400000D03*
X156395000Y-127400000D03*
D24*
X117910000Y-108485000D03*
X117910000Y-110135000D03*
D35*
X153250000Y-95750000D03*
X155150000Y-95750000D03*
X153120000Y-124080000D03*
X155020000Y-124080000D03*
D13*
X147745000Y-94020000D03*
X149295000Y-94020000D03*
D31*
X153820000Y-98895000D03*
X153820000Y-97345000D03*
D38*
X151542000Y-135285000D03*
X151542000Y-134015000D03*
X151542000Y-132745000D03*
X151542000Y-131475000D03*
X151542000Y-130205000D03*
X151542000Y-128935000D03*
X151542000Y-127665000D03*
X151542000Y-126395000D03*
X146118000Y-126395000D03*
X146118000Y-127665000D03*
X146118000Y-128935000D03*
X146118000Y-130205000D03*
X146118000Y-131475000D03*
X146118000Y-132745000D03*
X146118000Y-134015000D03*
X146118000Y-135285000D03*
D22*
X154815000Y-113110000D03*
X156465000Y-113110000D03*
D11*
X129843750Y-139035000D03*
X129843750Y-140585000D03*
D13*
X152985000Y-136530000D03*
X154535000Y-136530000D03*
X153235000Y-93890000D03*
X154785000Y-93890000D03*
D23*
X158540000Y-101915000D03*
X158540000Y-100265000D03*
X130350000Y-94535000D03*
X130350000Y-92885000D03*
D31*
X130675000Y-76455000D03*
X130675000Y-74905000D03*
D24*
X111020000Y-108485000D03*
X111020000Y-110135000D03*
D32*
X155072500Y-119190000D03*
X155072500Y-121090000D03*
X156947500Y-120140000D03*
D31*
X153710000Y-87585000D03*
X153710000Y-86035000D03*
D24*
X116530000Y-108485000D03*
X116530000Y-110135000D03*
D22*
X155265000Y-98890000D03*
X156915000Y-98890000D03*
D31*
X153820000Y-101965000D03*
X153820000Y-100415000D03*
D11*
X159770000Y-136815000D03*
X159770000Y-138365000D03*
D24*
X113780000Y-108485000D03*
X113780000Y-110135000D03*
D31*
X115180000Y-95335000D03*
X115180000Y-93785000D03*
D33*
X158577500Y-108450000D03*
X157002500Y-108450000D03*
D38*
X151560000Y-92390000D03*
X151560000Y-91120000D03*
X151560000Y-89850000D03*
X151560000Y-88580000D03*
X151560000Y-87310000D03*
X151560000Y-86040000D03*
X151560000Y-84770000D03*
X151560000Y-83500000D03*
X146136000Y-83500000D03*
X146136000Y-84770000D03*
X146136000Y-86040000D03*
X146136000Y-87310000D03*
X146136000Y-88580000D03*
X146136000Y-89850000D03*
X146136000Y-91120000D03*
X146136000Y-92390000D03*
D31*
X153730000Y-84535000D03*
X153730000Y-82985000D03*
D12*
X128203750Y-139030000D03*
X128203750Y-140930000D03*
D24*
X107980000Y-86855000D03*
X107980000Y-88505000D03*
D22*
X154755000Y-125870000D03*
X156405000Y-125870000D03*
D31*
X153360000Y-127395000D03*
X153360000Y-125845000D03*
D14*
X132350000Y-76480000D03*
X132350000Y-74580000D03*
D40*
X128620000Y-76475000D03*
X128620000Y-75225000D03*
X128620000Y-73975000D03*
X128620000Y-72725000D03*
X126470000Y-72725000D03*
X126470000Y-73975000D03*
X126470000Y-75225000D03*
X126470000Y-76475000D03*
D12*
X137260000Y-133390000D03*
X137260000Y-135290000D03*
D14*
X159870000Y-121020000D03*
X159870000Y-119120000D03*
D37*
X133887500Y-133390000D03*
X133887500Y-132440000D03*
X133887500Y-131490000D03*
X131612500Y-131490000D03*
X131612500Y-133390000D03*
D31*
X153370000Y-116275000D03*
X153370000Y-114725000D03*
D11*
X129880000Y-133395000D03*
X129880000Y-134945000D03*
D23*
X131870000Y-94535000D03*
X131870000Y-92885000D03*
D22*
X155195000Y-82980000D03*
X156845000Y-82980000D03*
D23*
X156940000Y-117575000D03*
X156940000Y-115925000D03*
D32*
X155072500Y-90480000D03*
X155072500Y-92380000D03*
X156947500Y-91430000D03*
D22*
X155185000Y-84500000D03*
X156835000Y-84500000D03*
X155265000Y-97370000D03*
X156915000Y-97370000D03*
D31*
X153370000Y-130445000D03*
X153370000Y-128895000D03*
M02*
